<svg width="520" height="165" viewBox="0 0 520 165" fill="none" xmlns="http://www.w3.org/2000/svg" role="img" aria-labelledby="title desc">
  <title id="title">GitHub profile summary</title>
  <desc id="desc">A stable profile summary card for Tutict White.</desc>
  <defs>
    <linearGradient id="accent" x1="20" y1="18" x2="500" y2="142" gradientUnits="userSpaceOnUse">
      <stop stop-color="#00D1B2"/>
      <stop offset="0.56" stop-color="#145C72"/>
      <stop offset="1" stop-color="#F5D061"/>
    </linearGradient>
    <filter id="softGlow" x="-20%" y="-20%" width="140%" height="140%">
      <feGaussianBlur stdDeviation="10" result="blur"/>
      <feColorMatrix in="blur" type="matrix" values="0 0 0 0 0 0 0 0 0 0.82 0 0 0 0 0.7 0 0 0 0.22 0"/>
      <feBlend in="SourceGraphic" mode="normal"/>
    </filter>
  </defs>
  <rect x="0.5" y="0.5" width="519" height="164" rx="14" fill="#0D1117" stroke="#1F2937"/>
  <path d="M1 13C1 6.373 6.373 1 13 1H507C513.627 1 519 6.373 519 13V26H1V13Z" fill="url(#accent)" opacity="0.18"/>
  <circle cx="458" cy="37" r="56" fill="#00D1B2" opacity="0.08" filter="url(#softGlow)"/>
  <circle cx="72" cy="142" r="70" fill="#F5D061" opacity="0.06"/>

  <text x="30" y="44" fill="#F0F7FF" font-family="Inter, Segoe UI, Arial, sans-serif" font-size="22" font-weight="700">GitHub Pulse</text>
  <text x="30" y="66" fill="#9FB0C7" font-family="Inter, Segoe UI, Arial, sans-serif" font-size="12">Stable profile snapshot / public data</text>

  <g transform="translate(30 90)">
    <rect x="0" y="0" width="132" height="52" rx="10" fill="#111820" stroke="#243242"/>
    <text x="20" y="26" fill="#00D1B2" font-family="Inter, Segoe UI, Arial, sans-serif" font-size="24" font-weight="800">20</text>
    <text x="20" y="43" fill="#CDD9E5" font-family="Inter, Segoe UI, Arial, sans-serif" font-size="11">Public Repos</text>
  </g>

  <g transform="translate(194 90)">
    <rect x="0" y="0" width="132" height="52" rx="10" fill="#111820" stroke="#243242"/>
    <text x="20" y="26" fill="#F5D061" font-family="Inter, Segoe UI, Arial, sans-serif" font-size="24" font-weight="800">2</text>
    <text x="20" y="43" fill="#CDD9E5" font-family="Inter, Segoe UI, Arial, sans-serif" font-size="11">Followers</text>
  </g>

  <g transform="translate(358 90)">
    <rect x="0" y="0" width="132" height="52" rx="10" fill="#111820" stroke="#243242"/>
    <text x="20" y="26" fill="#00D1B2" font-family="Inter, Segoe UI, Arial, sans-serif" font-size="24" font-weight="800">14</text>
    <text x="20" y="43" fill="#CDD9E5" font-family="Inter, Segoe UI, Arial, sans-serif" font-size="11">Following</text>
  </g>

  <text x="390" y="65" fill="#697A90" font-family="Inter, Segoe UI, Arial, sans-serif" font-size="11">Joined Aug 2020</text>
</svg>
